<svg width="32" height="32" viewBox="0 0 32 32" fill="none" xmlns="http://www.w3.org/2000/svg">
<path d="M21.6533 10.3467L19.248 17.5613C19.1171 17.9541 18.8965 18.311 18.6038 18.6038C18.311 18.8965 17.9541 19.1171 17.5613 19.248L10.3467 21.6533L12.752 14.4387C12.8829 14.0459 13.1035 13.689 13.3962 13.3962C13.689 13.1035 14.0459 12.8829 14.4387 12.752L21.6533 10.3467Z" stroke="#6E7A52" stroke-width="2.66667" stroke-linecap="round" stroke-linejoin="round"/>
<path d="M16.0003 29.3332C23.3641 29.3332 29.3337 23.3636 29.3337 15.9998C29.3337 8.63604 23.3641 2.6665 16.0003 2.6665C8.63653 2.6665 2.66699 8.63604 2.66699 15.9998C2.66699 23.3636 8.63653 29.3332 16.0003 29.3332Z" stroke="#6E7A52" stroke-width="2.66667" stroke-linecap="round" stroke-linejoin="round"/>
</svg>
