<svg width="32" height="32" viewBox="0 0 32 32" fill="none" xmlns="http://www.w3.org/2000/svg">
<path d="M21.3333 21.3332L25.3333 10.6665L29.3333 21.3332C28.1733 22.1998 26.7733 22.6665 25.3333 22.6665C23.8933 22.6665 22.4933 22.1998 21.3333 21.3332Z" stroke="#6E7A52" stroke-width="2.66667" stroke-linecap="round" stroke-linejoin="round"/>
<path d="M2.66669 21.3332L6.66669 10.6665L10.6667 21.3332C9.50669 22.1998 8.10669 22.6665 6.66669 22.6665C5.22669 22.6665 3.82669 22.1998 2.66669 21.3332Z" stroke="#6E7A52" stroke-width="2.66667" stroke-linecap="round" stroke-linejoin="round"/>
<path d="M9.33331 28H22.6666" stroke="#6E7A52" stroke-width="2.66667" stroke-linecap="round" stroke-linejoin="round"/>
<path d="M16 4V28" stroke="#6E7A52" stroke-width="2.66667" stroke-linecap="round" stroke-linejoin="round"/>
<path d="M4 9.33317H6.66667C9.33333 9.33317 13.3333 7.99984 16 6.6665C18.6667 7.99984 22.6667 9.33317 25.3333 9.33317H28" stroke="#6E7A52" stroke-width="2.66667" stroke-linecap="round" stroke-linejoin="round"/>
</svg>
