<svg width="32" height="32" viewBox="0 0 32 32" fill="none" xmlns="http://www.w3.org/2000/svg">
<path d="M8 29.3332V5.33317C8 4.62593 8.28095 3.94765 8.78105 3.44755C9.28115 2.94746 9.95942 2.6665 10.6667 2.6665H21.3333C22.0406 2.6665 22.7189 2.94746 23.219 3.44755C23.719 3.94765 24 4.62593 24 5.33317V29.3332H8Z" stroke="#6E7A52" stroke-width="2.66667" stroke-linecap="round" stroke-linejoin="round"/>
<path d="M8.00002 16H5.33335C4.62611 16 3.94783 16.281 3.44774 16.781C2.94764 17.2811 2.66669 17.9594 2.66669 18.6667V26.6667C2.66669 27.3739 2.94764 28.0522 3.44774 28.5523C3.94783 29.0524 4.62611 29.3333 5.33335 29.3333H8.00002" stroke="#6E7A52" stroke-width="2.66667" stroke-linecap="round" stroke-linejoin="round"/>
<path d="M24 12H26.6667C27.3739 12 28.0522 12.281 28.5523 12.781C29.0524 13.2811 29.3333 13.9594 29.3333 14.6667V26.6667C29.3333 27.3739 29.0524 28.0522 28.5523 28.5523C28.0522 29.0524 27.3739 29.3333 26.6667 29.3333H24" stroke="#6E7A52" stroke-width="2.66667" stroke-linecap="round" stroke-linejoin="round"/>
<path d="M13.3333 8H18.6666" stroke="#6E7A52" stroke-width="2.66667" stroke-linecap="round" stroke-linejoin="round"/>
<path d="M13.3333 13.3335H18.6666" stroke="#6E7A52" stroke-width="2.66667" stroke-linecap="round" stroke-linejoin="round"/>
<path d="M13.3333 18.6665H18.6666" stroke="#6E7A52" stroke-width="2.66667" stroke-linecap="round" stroke-linejoin="round"/>
<path d="M13.3333 24H18.6666" stroke="#6E7A52" stroke-width="2.66667" stroke-linecap="round" stroke-linejoin="round"/>
</svg>
