<svg width="24" height="22" viewBox="0 0 24 22" fill="none" xmlns="http://www.w3.org/2000/svg">
<path d="M22.9993 15.9738V18.9846C23.0006 19.2642 22.9375 19.5408 22.814 19.7969C22.6906 20.053 22.5096 20.2829 22.2826 20.4719C22.0556 20.6608 21.7876 20.8047 21.4958 20.8942C21.2039 20.9838 20.8947 21.017 20.5879 20.9919C17.1841 20.6563 13.9145 19.601 11.0418 17.9108C8.36914 16.3699 6.10319 14.3141 4.40487 11.8892C2.53545 9.27099 1.37207 6.29008 1.00898 3.18795C0.981336 2.91042 1.01769 2.63071 1.11572 2.36663C1.21376 2.10254 1.37132 1.85987 1.57839 1.65407C1.78546 1.44826 2.03749 1.28383 2.31843 1.17123C2.59938 1.05864 2.90309 1.00036 3.21023 1.0001H6.52869C7.06551 0.995304 7.58594 1.16778 7.99297 1.48537C8.4 1.80297 8.66586 2.24401 8.74099 2.72629C8.88106 3.68982 9.14081 4.63587 9.5153 5.54642C9.66413 5.90563 9.69634 6.29602 9.60812 6.67133C9.51989 7.04665 9.31494 7.39115 9.01753 7.66402L7.61272 8.93859C9.18739 11.4512 11.4803 13.5315 14.2496 14.9602L15.6545 13.6856C15.9552 13.4158 16.3349 13.2298 16.7486 13.1498C17.1622 13.0698 17.5925 13.099 17.9884 13.234C18.992 13.5738 20.0348 13.8095 21.0967 13.9365C21.6341 14.0053 22.1248 14.2509 22.4756 14.6265C22.8264 15.0021 23.0128 15.4817 22.9993 15.9738Z" stroke="#535F35" stroke-width="2" stroke-linecap="round" stroke-linejoin="round"/>
</svg>
